<?xml version="1.0" encoding="UTF-8"?><svg id="Layer_1" xmlns="http://www.w3.org/2000/svg" viewBox="0 0 2048 337"><defs><style>.cls-1{fill:#141414;}.cls-2{fill:#fff;}</style></defs><rect class="cls-1" x="26.95" y="27.03" width="754.53" height="282.95" rx="20.21" ry="20.21"/><rect class="cls-2" x="835.37" y=".08" width="1212.63" height="336.84" rx="47.16" ry="47.16"/><path class="cls-1" d="M896,53.97h90.98v19.69h-68.83v4.74h68.83v19.69h-68.83v19.88h-22.15V53.97Z"/><path class="cls-1" d="M1021.49,53.97h33.37l41.57,64h-25.8l-8.2-13.13h-49.78l-8.3,13.13h-24.89l42.03-64ZM1050.76,86.43l-13.22-20.79-13.31,20.79h26.53Z"/><path class="cls-1" d="M1117.49,73.67h-37.01v-19.69h97v19.69h-36.83v44.31h-23.16v-44.31Z"/><path class="cls-1" d="M1251.14,91.81v26.17h-22.52V53.97h22.52v25.71l41.21-25.71h36.65l-51.33,31.18,51.42,32.82h-38.29l-39.66-26.17Z"/><path class="cls-1" d="M1371.57,53.97h33.37l41.57,64h-25.8l-8.21-13.13h-49.78l-8.3,13.13h-24.89l42.03-64ZM1400.83,86.43l-13.22-20.79-13.31,20.79h26.53Z"/><path class="cls-1" d="M1451.43,53.97h76.94c13.86,0,20.33,7.02,20.33,19.42,0,9.76-4.1,14.68-9.85,16.14,6.47.45,9.39,4.65,9.39,9.48v18.96h-22.15v-14.59c0-3.19-1-4.83-4.65-4.83h-47.86v19.42h-22.15V53.97ZM1522.27,80.32c2.73,0,3.83-1.37,3.83-3.92s-1.18-3.83-3.83-3.83h-48.68v7.75h48.68Z"/><path class="cls-1" d="M1590.28,73.67h-37.01v-19.69h97v19.69h-36.83v44.31h-23.16v-44.31Z"/><path class="cls-1" d="M1656.83,53.97h22.7v64h-22.7V53.97Z"/><path class="cls-1" d="M1689.01,53.97h33.46l41.12,45.49v-45.49h21.97v64h-33l-41.57-46.04v46.04h-21.97V53.97Z"/><path class="cls-1" d="M1792.67,85.88c0-20.42,11.85-31.91,32.18-31.91h66.92v19.78h-65.55c-7.75,0-11.67,4.28-11.67,12.22s3.92,12.22,11.67,12.22h44.4v-4.38h-47.86v-15.59h69.01v39.75h-66.92c-20.33,0-32.18-11.58-32.18-32.09Z"/><path class="cls-1" d="M896,148.29h22.7v44.22h60.99v19.78h-83.69v-64Z"/><path class="cls-1" d="M987.71,148.29h89.43v19.69h-67.73v4.47h67.73v15.68h-67.73v4.38h67.73v19.78h-89.43v-64Z"/><path class="cls-1" d="M1124.09,148.29h33.37l41.57,64h-25.8l-8.2-13.13h-49.78l-8.3,13.13h-24.89l42.03-64ZM1153.36,180.74l-13.22-20.79-13.31,20.79h26.53Z"/><path class="cls-1" d="M1195.2,180.2c0-20.42,11.85-31.91,32.18-31.91h66.92v19.78h-65.55c-7.75,0-11.67,4.28-11.67,12.22s3.92,12.22,11.67,12.22h44.4v-4.38h-47.86v-15.59h69.01v39.75h-66.92c-20.33,0-32.18-11.58-32.18-32.09Z"/><path class="cls-1" d="M1303.78,189.22v-40.93h22.43v36.1c0,6.11,2.64,8.11,8.48,8.11h31.45c5.65,0,8.3-2.01,8.3-8.11v-36.1h22.43v40.93c0,14.95-8.11,23.07-24.43,23.07h-44.12c-16.32,0-24.52-8.11-24.52-23.07Z"/><path class="cls-1" d="M1406.34,148.29h89.43v19.69h-67.73v4.47h67.73v15.68h-67.73v4.38h67.73v19.78h-89.43v-64Z"/><path class="cls-2" d="M761.26.08H47.16C21.11.08,0,21.19,0,47.24v242.53c0,26.04,21.11,47.16,47.16,47.16h714.11c26.04,0,47.16-21.11,47.16-47.16V47.24c0-26.04-21.11-47.16-47.16-47.16ZM781.47,289.76c0,11.14-9.07,20.21-20.21,20.21H47.16c-11.14,0-20.21-9.07-20.21-20.21V47.24c0-11.14,9.07-20.21,20.21-20.21h714.11c11.14,0,20.21,9.07,20.21,20.21v242.53ZM606.32,53.97h-57.26v158.32h205.47v-50.53h-148.21V53.97ZM60.63,212.29h57.26v-50.53h165.05v-47.16H117.89v-13.47h165.05v-47.16H60.63v158.32ZM454.74,53.97l-100.63,62.66v-62.66h-57.69v158.32h57.69v-63.81l97.26,63.81h94.32l-127.49-81.19,127.49-77.13h-90.95Z"/></svg>