<?xml version="1.0" encoding="UTF-8"?><svg id="Layer_1" xmlns="http://www.w3.org/2000/svg" viewBox="0 0 2048 435"><path d="M376.97,158.51l-38.38,59.29h267.89l19.2-29.66h48.42l3.21,29.66h119.07l-6.47-59.29h-412.94ZM772.57,0h-292.95l-38.38,59.26h337.83l-6.47-59.26h-.02ZM781.23,79.19h-352.89l-38.38,59.28h397.77l-6.47-59.28h-.02ZM865.93,0l-15.94,59.26h387.23l15.94-59.26h-387.23ZM866.98,217.8h267.89l15.94-59.29h-267.89l-15.94,59.29ZM904.27,79.26l-15.94,59.26h267.89l15.94-59.26h-267.89ZM.09,217.8h267.89l15.96-59.29H16.03L.09,217.8ZM405.9,0H58.69l-15.94,59.26h347.21L405.9,0ZM21.41,138.52h327.37l15.94-59.26H37.37l-15.94,59.26h-.02Z"/><path d="M310.79,217.8h-8.33c-9.21,0-14.67-7.43-12.2-16.6l2.23-8.3c2.47-9.17,11.92-16.6,21.13-16.6h8.33c9.21,0,14.67,7.43,12.2,16.6l-2.23,8.3c-2.47,9.17-11.92,16.6-21.13,16.6Z"/><path d="M832.49,217.8h-8.33c-9.21,0-14.67-7.43-12.2-16.6l2.23-8.3c2.47-9.17,11.94-16.6,21.15-16.6h8.33c9.21,0,14.67,7.43,12.2,16.6l-2.23,8.3c-2.47,9.17-11.94,16.6-21.15,16.6Z"/><path d="M1177.69,217.8h-8.33c-9.21,0-14.67-7.43-12.2-16.6l2.23-8.3c2.47-9.17,11.94-16.6,21.15-16.6h8.33c9.21,0,14.68,7.43,12.2,16.6l-2.23,8.3c-2.47,9.17-11.94,16.6-21.15,16.6Z"/><path d="M1317.7,216.81V76.86h61.39c31.33,0,48.31,17.57,48.31,43.33,0,19.42-10.35,34.94-28.51,41.67l32.6,54.95h-35.53l-28.1-51.24h-19.52v51.24h-30.64ZM1348.34,140.98h24.69c14.64,0,23.53-7.42,23.53-20.4,0-12.1-8.4-18.74-22.65-18.74h-25.57v39.14ZM1438.22,216.81l46.65-139.95h42.46l45.77,139.95h-32.31l-10.34-33.57h-49.97l-10.45,33.57h-31.81ZM1488.19,158.45h34.65l-17.18-56.12-17.47,56.12ZM1642.69,219.64c-39.52,0-64.02-26.55-64.02-72.22s24.89-73.29,64.21-73.29c34.26,0,58.37,19.13,59.54,53.87h-31.03c-1.57-18.54-12.01-28.3-28.21-28.3-20.6,0-32.89,16.69-32.89,47.14s12.01,46.94,33.68,46.94c16.1,0,25.57-11.32,27.04-28.5h31.33c-1.96,36.6-25.86,54.36-59.63,54.36ZM1722.91,216.81V76.86h30.65v139.95h-30.65ZM1781.28,216.81V76.86h41.09l48.9,97.89v-97.89h28.89v139.95h-37.09l-52.79-104.14v104.14h-28.99ZM1982.03,219.64c-36.4,0-60.03-25.37-60.03-71.73s25.58-73.78,66.57-73.78c33.37,0,57.77,18.54,59.34,50.94h-31.81c-1.38-16.2-12.4-25.47-27.82-25.47-21.76,0-34.65,16.49-34.65,47.24s12.98,47.33,34.65,47.33c17.18,0,28.01-10.74,29.57-28.79h-29.28v-22.93h59.04v74.37h-26.05v-17.08c-8,13.18-20.99,19.91-39.53,19.91ZM1317.7,435v-139.95h49.77c42.36,0,65.78,27.52,65.78,68.22,0,43.04-25.76,71.73-67.14,71.73h-48.4ZM1348.34,409.53h16.01c26.93,0,37.28-22.06,37.28-46.26,0-25.77-11.42-42.75-37.48-42.75h-15.81v89.01ZM1454.92,435v-139.95h96.62v25.28h-65.98v31.62h60.42v24.4h-60.42v33.28h66.07v25.38h-96.71ZM1575.16,435v-139.95h57.48c31.14,0,48.21,17.47,48.21,45.58s-18.64,46.07-47.53,46.07h-27.52v48.31h-30.64ZM1605.8,361.51h21.85c14.74,0,23.53-7.03,23.53-20.89s-8.68-20.4-23.42-20.4h-21.96v41.28ZM1728.77,435v-114.19h-43.23v-25.77h117.01v25.77h-43.23v114.19h-30.55ZM1797.28,435v-30.74h30.25v30.74h-30.25Z"/></svg>